<?xml version="1.0" encoding="utf-8"?>
<svg viewBox="0 0 500 500" width="500" height="500" xmlns="http://www.w3.org/2000/svg">
  <path d="M 131.263 130.246 C 108.243 130.246 89.527 151.325 89.527 177.251 L 89.527 341.768 C 89.527 367.694 108.243 388.773 131.263 388.773 L 360.809 388.773 C 383.827 388.773 402.544 367.694 402.544 341.768 L 402.544 177.251 C 402.544 151.325 383.827 130.246 360.809 130.246 L 131.263 130.246 Z M 285.163 208.612 L 347.767 314.373 C 350.962 319.808 351.287 326.712 348.549 332.441 C 345.81 338.169 340.528 341.768 334.723 341.768 L 240.819 341.768 L 209.517 341.768 L 157.347 341.768 C 151.348 341.768 145.87 337.875 143.262 331.78 C 140.653 325.684 141.371 318.412 145.153 313.124 L 186.889 254.368 C 189.888 250.182 194.323 247.758 199.083 247.758 C 203.843 247.758 208.343 250.182 211.278 254.368 L 222.559 270.232 L 259.077 208.538 C 262.012 203.691 266.903 200.753 272.12 200.753 C 277.337 200.753 282.228 203.691 285.163 208.612 Z M 152.13 200.753 C 152.13 182.661 169.52 171.353 183.432 180.399 C 189.889 184.597 193.866 192.357 193.866 200.753 C 193.866 218.846 176.476 230.153 162.564 221.107 C 156.107 216.909 152.13 209.149 152.13 200.753 Z" style="fill: rgb(255, 255, 255);"/>
  <polygon style="stroke: rgb(255, 255, 255); stroke-width: 0px; fill: rgb(255, 255, 255);" points="56.598 73.865 51.153 120.602 8.079 122.592 51.153 130.049 56.598 178.778 60.062 129.554 103.137 123.585 61.054 120.106"/>
  <polygon style="fill: rgb(255, 255, 255);" points="414.283 375.248 408.274 423.826 360.735 425.894 408.274 433.644 414.283 484.291 418.107 433.129 465.646 426.926 419.202 423.308" transform="matrix(0.999629, 0.027253, -0.027253, 0.999629, 11.865979, -11.101049)"/>
  <polygon style="stroke: rgb(255, 255, 255); stroke-width: 0px; fill: rgb(255, 255, 255);" points="430.814 26.175 427.928 54.972 405.1 56.197 427.928 60.792 430.814 90.814 432.652 60.486 455.48 56.809 433.176 54.665"/>
  <polygon style="fill: rgb(255, 255, 255);" points="121.701 398.63 116.779 438.674 77.849 440.38 116.779 446.766 121.701 488.516 124.831 446.342 163.762 441.23 125.727 438.247" transform="matrix(0.999629, 0.027253, -0.027253, 0.999629, 12.133564, -3.127554)"/>
  <polygon style="stroke: rgb(255, 255, 255); stroke-width: 0px; fill: rgb(255, 255, 255);" points="282.554 390.561 279.597 416.817 256.206 417.934 279.597 422.124 282.554 449.497 284.437 421.844 307.828 418.492 284.975 416.537"/>
  <polygon style="stroke: rgb(255, 255, 255); stroke-width: 0px; fill: rgb(255, 255, 255);" points="192.873 4.945 187.211 53.645 142.428 55.718 187.211 63.49 192.873 114.261 196.479 62.971 241.262 56.753 197.509 53.126"/>
  <polygon style="fill: rgb(255, 255, 255);" points="324.322 65.414 320.742 91.668 292.433 92.786 320.742 96.973 324.322 124.346 326.598 96.695 354.908 93.344 327.25 91.388" transform="matrix(0.999629, 0.027253, -0.027253, 0.999629, 2.705986, -8.78575)"/>
  <polygon style="stroke: rgb(255, 255, 255); stroke-width: 0px; fill: rgb(255, 255, 255);" points="463.781 227.802 460.823 254.058 437.42 255.175 460.823 259.365 463.781 286.738 465.665 259.085 489.068 255.733 466.203 253.778"/>
  <polygon style="stroke: rgb(255, 255, 255); stroke-width: 0px; fill: rgb(255, 255, 255);" points="64.068 365.477 61.11 391.733 37.707 392.85 61.11 397.04 64.068 424.413 65.952 396.76 89.355 393.408 66.49 391.453"/>
</svg>